<?xml version="1.0" standalone="no"?>
<!DOCTYPE svg PUBLIC "-//W3C//DTD SVG 20010904//EN"
 "http://www.w3.org/TR/2001/REC-SVG-20010904/DTD/svg10.dtd">
<svg version="1.0" xmlns="http://www.w3.org/2000/svg"
 width="383.000000pt" height="300.000000pt" viewBox="0 0 383.000000 300.000000"
 preserveAspectRatio="xMidYMid meet">

<g transform="translate(0.000000,300.000000) scale(0.100000,-0.100000)"
fill="#000000" stroke="none">
<path d="M3680 2929 c-25 -16 -117 -73 -205 -126 -829 -498 -2109 -952 -2895
-1026 l-134 -12 -38 -185 c-20 -102 -37 -188 -38 -191 0 -3 26 -4 58 -2 544
36 1619 375 2397 758 459 226 745 428 845 597 18 31 65 206 58 214 -2 2 -24
-10 -48 -27z"/>
<path d="M3445 2244 c-612 -403 -1500 -787 -2300 -994 -307 -80 -639 -140
-773 -140 -26 0 -53 -4 -61 -9 -12 -7 -80 -294 -81 -340 0 -29 277 7 570 75
848 197 1943 645 2452 1004 109 77 234 197 271 260 21 37 74 228 65 235 -2 1
-66 -40 -143 -91z"/>
<path d="M3345 1633 c-422 -286 -1238 -661 -1965 -903 -478 -160 -957 -270
-1175 -270 l-64 0 -11 -57 c-7 -32 -25 -119 -40 -193 -16 -74 -27 -136 -24
-139 8 -8 227 20 359 45 671 130 1695 498 2308 829 316 171 578 375 635 495
18 39 67 239 60 245 -2 2 -39 -22 -83 -52z"/>
</g>
</svg>
